<?xml version="1.0" standalone="no"?>
<!DOCTYPE svg PUBLIC "-//W3C//DTD SVG 20010904//EN"
 "http://www.w3.org/TR/2001/REC-SVG-20010904/DTD/svg10.dtd">
<svg version="1.0" xmlns="http://www.w3.org/2000/svg"
 width="616.000000pt" height="616.000000pt" viewBox="0 0 616.000000 616.000000"
 preserveAspectRatio="xMidYMid meet">
<metadata>
Created by potrace 1.11, written by Peter Selinger 2001-2013
</metadata>
<g transform="translate(0.000000,616.000000) scale(0.100000,-0.100000)"
fill="#000000" stroke="none">
<path d="M2563 5135 c-318 -58 -562 -252 -662 -525 -47 -129 -55 -179 -55
-350 0 -143 3 -177 24 -250 55 -202 157 -354 311 -467 172 -126 373 -180 643
-170 83 3 162 8 176 11 14 2 42 7 62 10 144 22 407 117 409 148 0 19 0 840 0
861 -1 16 -24 17 -334 17 l-332 0 0 -175 0 -175 152 0 153 0 0 -134 0 -134
-50 -21 c-94 -41 -170 -55 -290 -55 -176 0 -283 40 -387 144 -102 102 -148
225 -147 395 0 95 7 137 33 205 83 218 265 333 516 325 152 -4 242 -35 340
-116 l49 -41 30 34 c72 82 193 213 209 227 27 25 21 38 -42 85 -110 81 -220
123 -396 151 -104 17 -321 17 -412 0z"/>
<path d="M3697 4863 c40 -137 91 -309 113 -383 22 -74 102 -344 178 -600 l138
-465 164 0 164 0 59 185 c156 490 287 905 303 958 4 15 24 16 24 0 0 -7 29
-102 64 -212 36 -111 98 -307 140 -436 41 -129 94 -295 117 -367 l42 -133 168
0 167 0 11 33 c6 17 49 165 96 327 103 355 121 417 145 495 26 89 41 141 140
480 50 171 95 322 100 338 l9 27 -193 0 -193 0 -26 -102 c-14 -57 -55 -220
-92 -363 -37 -143 -68 -268 -70 -278 -2 -10 -13 -51 -24 -91 -11 -40 -22 -83
-25 -97 -12 -61 -40 -165 -46 -172 -3 -4 -40 102 -82 235 -42 134 -106 338
-143 453 -37 116 -81 256 -98 313 l-31 102 -177 0 -177 0 -16 -47 c-8 -27 -71
-221 -140 -433 -69 -212 -142 -437 -162 -500 l-37 -115 -28 115 c-16 63 -31
124 -33 135 -5 21 -35 139 -41 165 -3 8 -21 80 -40 160 -20 80 -38 152 -40
160 -14 52 -47 188 -51 205 -2 11 -12 49 -22 85 l-17 65 -206 3 -206 2 74
-247z"/>
<path d="M1270 4904 c-102 -41 -192 -77 -200 -80 -85 -33 -265 -102 -505 -197
-159 -62 -345 -135 -412 -161 l-123 -48 -1 -47 c-1 -56 -1 -291 0 -307 1 -7
58 -34 128 -62 71 -27 272 -106 448 -175 176 -69 385 -151 465 -182 80 -31
197 -77 260 -102 63 -25 121 -47 128 -50 10 -4 12 35 10 192 l-3 197 -165 65
c-91 35 -266 104 -390 153 -124 49 -252 98 -284 111 -40 15 -54 24 -45 29 8 5
73 31 144 58 328 128 572 223 590 231 11 5 49 20 85 34 l65 25 3 196 c1 108
-1 196 -5 195 -5 0 -91 -34 -193 -75z"/>
<path d="M4145 3182 c-3 -9 -110 -287 -237 -617 -126 -330 -240 -627 -253
-660 -85 -215 -345 -898 -347 -911 -2 -12 29 -26 137 -61 77 -24 149 -46 160
-48 19 -4 46 60 279 668 142 369 278 722 302 782 126 324 284 739 286 752 2
11 -33 26 -137 58 -188 59 -182 58 -190 37z"/>
<path d="M1250 2935 c-303 -55 -535 -234 -645 -495 -29 -68 -37 -93 -51 -155
-29 -122 -26 -360 4 -470 71 -255 211 -433 432 -545 44 -23 210 -82 210 -75 0
2 21 -2 48 -9 65 -17 253 -20 332 -6 182 31 314 100 427 219 56 59 57 60 45
76 -6 9 -263 203 -288 218 -6 3 -37 -20 -70 -51 -90 -87 -178 -122 -300 -117
-93 4 -124 11 -192 42 -75 35 -178 139 -216 217 -47 99 -59 152 -60 271 0 133
25 227 86 322 90 139 216 212 376 218 133 4 230 -27 311 -100 l38 -35 139 115
c76 63 139 120 139 125 0 15 -74 88 -123 122 -55 38 -135 74 -219 100 -83 25
-321 32 -423 13z"/>
<path d="M2632 2924 c-223 -56 -376 -194 -426 -384 -14 -54 -16 -220 -3 -268
13 -49 53 -114 96 -158 72 -72 160 -118 342 -178 202 -66 252 -89 300 -137 89
-89 36 -221 -105 -262 -136 -38 -300 6 -399 108 l-35 36 -45 -48 c-140 -152
-217 -239 -217 -246 0 -23 154 -126 240 -160 157 -62 350 -73 551 -32 93 18
214 84 282 152 104 103 151 226 149 390 -4 238 -122 364 -427 458 -252 77
-323 114 -345 180 -47 143 109 249 313 214 74 -13 123 -35 165 -74 l34 -30 46
51 c218 236 214 231 195 250 -36 35 -136 93 -196 113 -169 57 -356 66 -515 25z"/>
<path d="M4599 2624 c-5 -139 -2 -360 6 -369 6 -7 172 -76 370 -154 500 -195
525 -205 521 -209 -2 -2 -37 -16 -77 -31 -221 -83 -805 -315 -813 -322 -5 -4
-9 -94 -10 -198 -1 -186 -1 -191 19 -185 11 4 126 48 255 99 129 51 445 174
703 275 l467 183 0 182 0 182 -237 93 c-389 152 -1158 454 -1190 467 -8 3 -13
-3 -14 -13z"/>
</g>
</svg>
